HIERARCHY
ROOT root
{
	OFFSET	0	13.1	24.9
	CHANNELS 6  Xposition Yposition Zposition Xrotation Yrotation Zrotation
	JOINT spine_1
	{
		OFFSET	0	9.99999	0
		CHANNELS 3  Xrotation Yrotation Zrotation
		JOINT spine_2
		{
			OFFSET	0	112	-10
			CHANNELS 3  Xrotation Yrotation Zrotation
			JOINT spine_3
			{
				OFFSET	0	206.5	19.3
				CHANNELS 3  Xrotation Yrotation Zrotation
				JOINT spine_4
				{
					OFFSET	0	110.4	14.6
					CHANNELS 3  Xrotation Yrotation Zrotation
					JOINT neck_1
					{
						OFFSET	0	71.8	-50.3
						CHANNELS 3  Xrotation Yrotation Zrotation
						JOINT neck_2
						{
							OFFSET	0	86.2	-25.8
							CHANNELS 3  Xrotation Yrotation Zrotation
							JOINT head_ee
							{
								OFFSET	0	179.8	-8.7
								CHANNELS 3  Xrotation Yrotation Zrotation
								End Site
								{
									OFFSET	1	0	0
								}
							}
						}
					}
					JOINT left_clavicle
					{
						OFFSET	-43.2	22.4	-70.8
						CHANNELS 3  Xrotation Yrotation Zrotation
						JOINT left_shoulder
						{
							OFFSET	-93.9	-5.79999	48.7
							CHANNELS 3  Xrotation Yrotation Zrotation
							JOINT left_elbow
							{
								OFFSET	-291.4	-30.8	15.2
								CHANNELS 3  Xrotation Yrotation Zrotation
								JOINT left_lowarm_twist
								{
									OFFSET	-110.7	-3.89999	13.6
									CHANNELS 3  Xrotation Yrotation Zrotation
									JOINT left_hand
									{
										OFFSET	-110.7	-3.89999	13.6
										CHANNELS 3  Xrotation Yrotation Zrotation
										JOINT left_ee
										{
											OFFSET	-80.8	-5.10001	12.1
											CHANNELS 3  Xrotation Yrotation Zrotation
											End Site
											{
												OFFSET	1	0	0
											}
										}
									}
								}
							}
						}
					}
					JOINT right_clavicle
					{
						OFFSET	43.2	22.4	-70.8
						CHANNELS 3  Xrotation Yrotation Zrotation
						JOINT right_shoulder
						{
							OFFSET	93.9	-5.79999	48.7
							CHANNELS 3  Xrotation Yrotation Zrotation
							JOINT right_elbow
							{
								OFFSET	291.4	-30.8	15.2
								CHANNELS 3  Xrotation Yrotation Zrotation
								JOINT right_lowarm_twist
								{
									OFFSET	110.7	-3.89999	13.6
									CHANNELS 3  Xrotation Yrotation Zrotation
									JOINT right_hand
									{
										OFFSET	110.7	-3.89999	13.6
										CHANNELS 3  Xrotation Yrotation Zrotation
										JOINT right_ee
										{
											OFFSET	80.8	-5.10001	12.1
											CHANNELS 3  Xrotation Yrotation Zrotation
											End Site
											{
												OFFSET	1	0	0
											}
										}
									}
								}
							}
						}
					}
				}
			}
		}
	}
	JOINT left_hip
	{
		OFFSET	-82.8	-127.5	0.300001
		CHANNELS 3  Xrotation Yrotation Zrotation
		JOINT left_knee
		{
			OFFSET	-28.2	-396.7	2.2
			CHANNELS 3  Xrotation Yrotation Zrotation
			JOINT left_ankle
			{
				OFFSET	-11.7	-411.3	35.4
				CHANNELS 3  Xrotation Yrotation Zrotation
				JOINT left_toes
				{
					OFFSET	0	-60	-88.6
					CHANNELS 3  Xrotation Yrotation Zrotation
					JOINT left_foot_ee
					{
						OFFSET	-22.5	-16.5	-42.2
						CHANNELS 3  Xrotation Yrotation Zrotation
						End Site
						{
							OFFSET	1	0	0
						}
					}
				}
			}
		}
	}
	JOINT right_hip
	{
		OFFSET	82.8	-127.5	0.300001
		CHANNELS 3  Xrotation Yrotation Zrotation
		JOINT right_knee
		{
			OFFSET	28.2	-396.7	2.2
			CHANNELS 3  Xrotation Yrotation Zrotation
			JOINT right_ankle
			{
				OFFSET	11.7	-411.3	35.4
				CHANNELS 3  Xrotation Yrotation Zrotation
				JOINT right_toes
				{
					OFFSET	0	-60	-88.6
					CHANNELS 3  Xrotation Yrotation Zrotation
					JOINT right_foot_ee
					{
						OFFSET	22.5	-16.5	-42.2
						CHANNELS 3  Xrotation Yrotation Zrotation
						End Site
						{
							OFFSET	1	0	0
						}
					}
				}
			}
		}
	}
}
MOTION
Frames: 14
Frame Time: 0.02
3177.02 653.055 -1669.29 -12.7352515798 17.0834102934 3.43069593044 5.96405 0.203621 1.84749 5.96594 0.0856685 1.85669 5.9666 -0.114281 1.85515 5.96184 0.180088 1.84993 -14.1408 10.5458 -2.23932 -14.5006 21.4799 1.31589 -0.0 0.0 -0.0 -1.77649 5.42398 -2.60261 -26.4622 -23.4561 73.8634 0.506746 -14.0918 0.062633 48.6012 -0.870498 -5.96363 0.308613 16.5066 8.63895 -0.0 0.0 -0.0 10.801 3.66184 -21.4998 -20.1869 40.0252 -57.4268 1.33986 33.5716 -0.40418 46.5361 0.732137 5.7384 -0.877443 -0.572711 5.61802 0.0 0.0 0.0 30.2476 -17.1895 -6.59303 4.39497 -0.205773 -0.642754 -4.877 16.847 0.728705 -18.6907 0.0 0.0 -0.0 0.0 -0.0 0.529776 18.8876 1.20294 -11.8389 -0.303611 -1.78828 41.3846 -9.55928 4.99266 -24.314 0.0 0.0 0.0 0.0 0.0 
3177.02 653.055 -1669.29 -12.749780926 17.2911298882 3.47986522994 5.96405 0.203621 1.84749 5.96594 0.0856685 1.85669 5.9666 -0.114281 1.85515 5.96184 0.180088 1.84993 -14.1408 10.5458 -2.23932 -14.5006 21.4799 1.31589 -0.0 0.0 -0.0 -1.77649 5.42398 -2.60261 -26.4622 -23.4561 73.8634 0.506746 -14.0918 0.062633 48.6012 -0.870498 -5.96363 0.308613 16.5066 8.63895 -0.0 0.0 -0.0 10.801 3.66184 -21.4998 -20.1869 40.0252 -57.4268 1.33986 33.5716 -0.40418 46.5361 0.732137 5.7384 -0.877443 -0.572711 5.61802 0.0 0.0 0.0 30.2476 -17.1895 -6.59303 4.39497 -0.205773 -0.642754 -4.877 16.847 0.728705 -18.6907 0.0 0.0 -0.0 0.0 -0.0 0.529776 18.8876 1.20294 -11.8389 -0.303611 -1.78828 41.3846 -9.55928 4.99266 -24.314 0.0 0.0 0.0 0.0 0.0 
3161.78348175 648.747 -1688.75897562 -12.6197092924 16.7184868809 3.57765546547 6.059 0.104934 1.83399 6.06087 -0.0119601 1.83695 6.05837 -0.206348 1.82537 6.05373 0.0844748 1.83505 -12.1872 11.3151 -1.92755 -12.4773 22.7004 1.46061 -0.0 0.0 -0.0 -2.18738 4.68824 -3.47769 -25.1271 -23.6482 74.6087 0.503018 -13.9922 0.0617286 48.8151 -0.885298 -5.98668 0.223119 17.7645 8.58413 -0.0 0.0 -0.0 10.8073 4.75344 -21.5495 -20.3974 39.4257 -58.7269 1.18994 30.5166 -0.324611 45.6783 0.677077 5.64343 -0.836126 -1.26391 5.03827 0.0 0.0 0.0 29.1685 -16.8678 -6.78475 3.17401 -0.143659 -0.465769 -2.24715 15.3919 0.332932 -15.969 0.0 0.0 -0.0 0.0 -0.0 -0.535458 18.4106 1.49719 -13.2306 -0.314859 -2.0015 41.3266 -8.35852 4.98021 -22.6773 0.0 0.0 0.0 0.0 0.0 
3161.69686588 648.747 -1688.69087783 -12.6366098148 16.967660203 3.63598298629 6.059 0.104934 1.83399 6.06087 -0.0119601 1.83695 6.05837 -0.206348 1.82537 6.05373 0.0844748 1.83505 -12.1872 11.3151 -1.92755 -12.4773 22.7004 1.46061 -0.0 0.0 -0.0 -2.18738 4.68824 -3.47769 -25.1271 -23.6482 74.6087 0.503018 -13.9922 0.0617286 48.8151 -0.885298 -5.98668 0.223119 17.7645 8.58413 -0.0 0.0 -0.0 10.8073 4.75344 -21.5495 -20.3974 39.4257 -58.7269 1.18994 30.5166 -0.324611 45.6783 0.677077 5.64343 -0.836126 -1.26391 5.03827 0.0 0.0 0.0 29.1685 -16.8678 -6.78475 3.17401 -0.143659 -0.465769 -2.24715 15.3919 0.332932 -15.969 0.0 0.0 -0.0 0.0 -0.0 -0.535458 18.4106 1.49719 -13.2306 -0.314859 -2.0015 41.3266 -8.35852 4.98021 -22.6773 0.0 0.0 0.0 0.0 0.0 
3161.54039956 648.747 -1688.56626702 -12.6680292598 17.4199749797 3.74227075264 6.059 0.104934 1.83399 6.06087 -0.0119601 1.83695 6.05837 -0.206348 1.82537 6.05373 0.0844748 1.83505 -12.1872 11.3151 -1.92755 -12.4773 22.7004 1.46061 -0.0 0.0 -0.0 -2.18738 4.68824 -3.47769 -25.1271 -23.6482 74.6087 0.503018 -13.9922 0.0617286 48.8151 -0.885298 -5.98668 0.223119 17.7645 8.58413 -0.0 0.0 -0.0 10.8073 4.75344 -21.5495 -20.3974 39.4257 -58.7269 1.18994 30.5166 -0.324611 45.6783 0.677077 5.64343 -0.836126 -1.26391 5.03827 0.0 0.0 0.0 29.1685 -16.8678 -6.78475 3.17401 -0.143659 -0.465769 -2.24715 15.3919 0.332932 -15.969 0.0 0.0 -0.0 0.0 -0.0 -0.535458 18.4106 1.49719 -13.2306 -0.314859 -2.0015 41.3266 -8.35852 4.98021 -22.6773 0.0 0.0 0.0 0.0 0.0 
3145.8538675 649.758 -1708.31540948 -12.1085016187 16.5915642203 4.22940023015 5.97263 0.088934 1.75646 5.97434 -0.0229966 1.75856 5.97174 -0.211664 1.74593 5.96749 0.0666849 1.75744 -11.6209 11.6469 -2.33966 -11.8932 23.5723 1.04453 -0.0 0.0 -0.0 -1.86449 3.98714 -2.98963 -23.1837 -24.2439 74.1272 0.44009 -12.2987 0.0474158 48.6673 -0.875061 -5.97076 -0.0416895 18.5911 7.28252 -0.0 0.0 -0.0 10.7414 4.34645 -21.3949 -20.4948 38.8486 -60.6915 1.00784 26.5302 -0.2376 44.867 0.626316 5.55285 -0.898474 -2.48307 4.91837 0.0 0.0 0.0 28.0311 -16.7321 -7.34181 0.167963 -0.00695284 -0.0248376 -0.686786 13.6256 0.101081 -13.517 0.0 0.0 -0.0 0.0 -0.0 -0.615889 18.6541 0.984592 -15.1493 -0.321869 -2.29579 40.6443 -7.65226 4.9188 -20.8872 0.0 0.0 0.0 0.0 0.0 
3119.28097776 654.127 -1738.63879819 -11.4221923558 15.8030002698 4.63640369397 6.02498 0.0589975 1.55873 6.02633 -0.0402955 1.55932 6.02372 -0.206064 1.54617 6.02039 0.0406807 1.55931 -9.18888 11.6401 -2.76952 -9.29416 23.743 0.0866323 -0.0 0.0 -0.0 -1.72324 4.00684 -2.72331 -22.0818 -24.7035 74.1479 0.387297 -10.8608 0.0368177 47.815 -0.816864 -5.87847 -0.272312 19.19 6.12232 -0.0 0.0 -0.0 10.4587 2.03264 -20.7063 -22.8415 37.8349 -60.9288 0.823869 22.2012 -0.161649 43.7456 0.558285 5.42652 -0.719625 -2.65908 3.65284 0.0 0.0 0.0 26.4 -15.4196 -7.18837 -2.1872 0.0838569 0.325167 2.82884 12.9345 -0.412382 -11.7258 0.0 0.0 -0.0 0.0 -0.0 -1.03805 18.9398 1.21718 -18.3858 -0.311357 -2.79218 40.8401 -8.93921 4.94216 -18.2948 0.0 0.0 0.0 0.0 0.0 
3119.68539752 654.127 -1738.97352645 -11.4037272927 15.4762661772 4.56790983401 6.02498 0.0589975 1.55873 6.02633 -0.0402955 1.55932 6.02372 -0.206064 1.54617 6.02039 0.0406807 1.55931 -9.18888 11.6401 -2.76952 -9.29416 23.743 0.0866323 -0.0 0.0 -0.0 -1.72324 4.00684 -2.72331 -22.0818 -24.7035 74.1479 0.387297 -10.8608 0.0368177 47.815 -0.816864 -5.87847 -0.272312 19.19 6.12232 -0.0 0.0 -0.0 10.4587 2.03264 -20.7063 -22.8415 37.8349 -60.9288 0.823869 22.2012 -0.161649 43.7456 0.558285 5.42652 -0.719625 -2.65908 3.65284 0.0 0.0 0.0 26.4 -15.4196 -7.18837 -2.1872 0.0838569 0.325167 2.82884 12.9345 -0.412382 -11.7258 0.0 0.0 -0.0 0.0 -0.0 -1.03805 18.9398 1.21718 -18.3858 -0.311357 -2.79218 40.8401 -8.93921 4.94216 -18.2948 0.0 0.0 0.0 0.0 0.0 
3119.71907986 654.127 -1739.00122615 -11.4022129571 15.4491236576 4.56222988793 6.02498 0.0589975 1.55873 6.02633 -0.0402955 1.55932 6.02372 -0.206064 1.54617 6.02039 0.0406807 1.55931 -9.18888 11.6401 -2.76952 -9.29416 23.743 0.0866323 -0.0 0.0 -0.0 -1.72324 4.00684 -2.72331 -22.0818 -24.7035 74.1479 0.387297 -10.8608 0.0368177 47.815 -0.816864 -5.87847 -0.272312 19.19 6.12232 -0.0 0.0 -0.0 10.4587 2.03264 -20.7063 -22.8415 37.8349 -60.9288 0.823869 22.2012 -0.161649 43.7456 0.558285 5.42652 -0.719625 -2.65908 3.65284 0.0 0.0 0.0 26.4 -15.4196 -7.18837 -2.1872 0.0838569 0.325167 2.82884 12.9345 -0.412382 -11.7258 0.0 0.0 -0.0 0.0 -0.0 -1.03805 18.9398 1.21718 -18.3858 -0.311357 -2.79218 40.8401 -8.93921 4.94216 -18.2948 0.0 0.0 0.0 0.0 0.0 
3119.61051568 654.127 -1738.91184722 -11.407106821 15.5366470173 4.58055081484 6.02498 0.0589975 1.55873 6.02633 -0.0402955 1.55932 6.02372 -0.206064 1.54617 6.02039 0.0406807 1.55931 -9.18888 11.6401 -2.76952 -9.29416 23.743 0.0866323 -0.0 0.0 -0.0 -1.72324 4.00684 -2.72331 -22.0818 -24.7035 74.1479 0.387297 -10.8608 0.0368177 47.815 -0.816864 -5.87847 -0.272312 19.19 6.12232 -0.0 0.0 -0.0 10.4587 2.03264 -20.7063 -22.8415 37.8349 -60.9288 0.823869 22.2012 -0.161649 43.7456 0.558285 5.42652 -0.719625 -2.65908 3.65284 0.0 0.0 0.0 26.4 -15.4196 -7.18837 -2.1872 0.0838569 0.325167 2.82884 12.9345 -0.412382 -11.7258 0.0 0.0 -0.0 0.0 -0.0 -1.03805 18.9398 1.21718 -18.3858 -0.311357 -2.79218 40.8401 -8.93921 4.94216 -18.2948 0.0 0.0 0.0 0.0 0.0 
3118.07192712 654.127 -1737.61404557 -11.4806025695 16.7892926183 4.84455601928 6.02498 0.0589975 1.55873 6.02633 -0.0402955 1.55932 6.02372 -0.206064 1.54617 6.02039 0.0406807 1.55931 -9.18888 11.6401 -2.76952 -9.29416 23.743 0.0866323 -0.0 0.0 -0.0 -1.72324 4.00684 -2.72331 -22.0818 -24.7035 74.1479 0.387297 -10.8608 0.0368177 47.815 -0.816864 -5.87847 -0.272312 19.19 6.12232 -0.0 0.0 -0.0 10.4587 2.03264 -20.7063 -22.8415 37.8349 -60.9288 0.823869 22.2012 -0.161649 43.7456 0.558285 5.42652 -0.719625 -2.65908 3.65284 0.0 0.0 0.0 26.4 -15.4196 -7.18837 -2.1872 0.0838569 0.325167 2.82884 12.9345 -0.412382 -11.7258 0.0 0.0 -0.0 0.0 -0.0 -1.03805 18.9398 1.21718 -18.3858 -0.311357 -2.79218 40.8401 -8.93921 4.94216 -18.2948 0.0 0.0 0.0 0.0 0.0 
3085.8021368 669.052 -1772.81471412 -10.296036413 17.4776636854 5.30726504252 5.68209 0.214061 1.36432 5.68312 0.12682 1.37517 5.68508 -0.0283995 1.38072 5.68247 0.189995 1.36788 -5.51155 11.6049 -2.86934 -5.37186 23.53 -0.81964 -0.0 0.0 -0.0 -0.957531 2.38959 -1.52179 -17.8434 -25.966 72.1189 0.334463 -9.40769 0.0275206 47.037 -0.764947 -5.79348 -0.41513 18.3547 4.92691 -0.0 0.0 -0.0 10.1273 0.467187 -19.9411 -25.7801 36.5581 -62.2186 0.606557 16.7241 -0.0891589 43.117 0.521237 5.35513 -0.665941 -5.37508 2.11919 0.0 0.0 0.0 23.7072 -13.1986 -6.31107 -4.77116 0.166829 0.713015 13.0325 15.5185 -1.84944 -9.4212 0.0 0.0 -0.0 0.0 -0.0 1.74055 20.2681 -1.16134 -24.0216 -0.226261 -3.65244 37.9602 -13.8674 4.73018 -14.7967 0.0 0.0 0.0 0.0 0.0 
3081.76416934 669.052 -1769.11179985 -10.4337894179 19.715758335 5.73913719219 5.68209 0.214061 1.36432 5.68312 0.12682 1.37517 5.68508 -0.0283995 1.38072 5.68247 0.189995 1.36788 -5.51155 11.6049 -2.86934 -5.37186 23.53 -0.81964 -0.0 0.0 -0.0 -0.957531 2.38959 -1.52179 -17.8434 -25.966 72.1189 0.334463 -9.40769 0.0275206 47.037 -0.764947 -5.79348 -0.41513 18.3547 4.92691 -0.0 0.0 -0.0 10.1273 0.467187 -19.9411 -25.7801 36.5581 -62.2186 0.606557 16.7241 -0.0891589 43.117 0.521237 5.35513 -0.665941 -5.37508 2.11919 0.0 0.0 0.0 23.7072 -13.1986 -6.31107 -4.77116 0.166829 0.713015 13.0325 15.5185 -1.84944 -9.4212 0.0 0.0 -0.0 0.0 -0.0 1.74055 20.2681 -1.16134 -24.0216 -0.226261 -3.65244 37.9602 -13.8674 4.73018 -14.7967 0.0 0.0 0.0 0.0 0.0 
3066.18844706 670.326 -1775.80844851 -10.4883068189 21.5484161214 5.72994206028 5.56977 0.260456 1.30148 5.5707 0.177119 1.31541 5.57381 0.0257291 1.32703 5.57143 0.234968 1.30632 -4.96219 12.1777 -1.82908 -4.80776 23.7708 0.2299 -0.0 0.0 -0.0 -0.805279 1.53712 -1.34868 -16.0876 -26.2882 70.5483 0.335514 -9.43672 0.0276926 47.0651 -0.766805 -5.79657 -0.243902 18.332 5.95477 -0.0 0.0 -0.0 10.0417 -0.348308 -19.7235 -27.1612 36.4042 -62.0312 0.530911 14.7351 -0.0686482 43.0625 0.518065 5.34892 -0.723284 -7.84017 1.4258 0.0 0.0 0.0 22.3231 -12.5513 -5.96417 -2.7375 0.102993 0.407454 12.3593 15.692 -1.75888 -9.71186 0.0 0.0 -0.0 0.0 -0.0 3.16224 22.0835 -1.27846 -26.9001 -0.150263 -4.0876 40.7025 -12.9657 4.96707 -12.8898 0.0 0.0 0.0 0.0 0.0 
